<?xml version="1.0" standalone="no"?>
<!DOCTYPE svg PUBLIC "-//W3C//DTD SVG 20010904//EN"
 "http://www.w3.org/TR/2001/REC-SVG-20010904/DTD/svg10.dtd">
<svg version="1.0" xmlns="http://www.w3.org/2000/svg"
 width="460.000000pt" height="460.000000pt" viewBox="0 0 460.000000 460.000000"
 preserveAspectRatio="xMidYMid meet">
<metadata>
Created by potrace 1.14, written by Peter Selinger 2001-2017
</metadata>
<g transform="translate(0.000000,460.000000) scale(0.100000,-0.100000)"
fill="#000000" stroke="none">
<path d="M2091 4590 c-180 -18 -354 -57 -541 -121 -141 -49 -498 -225 -561
-276 -25 -21 -82 -66 -125 -100 -108 -85 -282 -264 -398 -408 -83 -104 -110
-147 -195 -320 -196 -394 -265 -673 -265 -1065 0 -392 69 -669 265 -1065 97
-196 116 -225 265 -406 155 -189 536 -509 605 -509 19 0 158 274 265 520 30
69 59 134 64 145 5 11 32 74 60 140 52 123 127 261 137 251 3 -3 1 -18 -5 -33
-28 -72 -100 -425 -105 -513 -2 -36 -9 -75 -14 -85 -6 -11 -8 -26 -6 -32 8
-22 -25 -117 -78 -227 -28 -58 -48 -112 -46 -118 3 -8 6 -6 6 5 1 19 21 24 22
5 0 -7 5 -1 11 15 6 17 17 27 30 27 15 0 18 -4 14 -17 -4 -9 -9 -55 -12 -102
-3 -46 -9 -92 -15 -102 -14 -26 -12 -29 26 -45 43 -18 45 -18 45 4 1 23 39 73
40 51 0 -9 -7 -22 -15 -29 -17 -14 -20 -40 -6 -40 5 0 11 6 14 13 2 6 3 4 2
-5 -2 -10 1 -20 5 -23 10 -6 52 83 70 148 7 26 16 47 21 47 4 0 10 13 14 30 4
16 11 30 16 30 5 0 9 8 9 18 1 9 7 28 15 42 13 22 14 23 15 5 0 -11 -4 -34 -9
-52 -8 -27 -6 -32 10 -36 22 -6 34 8 22 26 -4 6 -8 45 -8 84 0 40 1 69 3 63 2
-5 9 -7 17 -4 8 3 11 12 8 20 -3 8 0 20 6 28 6 7 8 22 4 31 -4 13 -3 16 5 11
12 -7 17 20 13 69 -2 15 0 17 7 6 11 -16 25 1 17 21 -3 8 -1 25 4 39 5 13 10
18 10 12 1 -7 0 -15 -1 -17 -2 -2 5 -13 15 -24 11 -12 20 -38 20 -61 1 -23 5
-41 8 -41 4 0 5 -63 2 -140 -3 -95 -1 -140 6 -140 6 0 11 -16 11 -35 0 -19 -4
-35 -10 -35 -5 0 -10 -18 -10 -40 0 -22 3 -39 8 -39 4 1 18 1 32 0 21 -1 25
-6 25 -32 0 -19 -7 -34 -17 -40 -23 -13 -25 -74 -2 -83 34 -13 65 -6 75 17 9
21 9 20 6 -5 -4 -27 -2 -28 39 -28 36 0 42 3 37 17 -4 11 -3 14 5 9 7 -4 12
-14 12 -22 0 -10 14 -14 55 -14 30 0 55 5 55 10 0 6 -4 10 -10 10 -5 0 -7 7
-4 15 9 23 23 18 30 -10 4 -18 13 -25 30 -25 26 0 27 4 26 65 l-1 40 10 -34
c6 -19 8 -43 6 -53 -7 -26 15 -18 28 11 11 23 49 26 51 4 3 -24 4 -25 19 -13
12 10 15 10 15 -4 0 -19 15 -20 149 -5 l101 12 -5 26 c-5 25 -5 25 6 3 14 -26
29 -29 30 -4 0 14 2 14 8 -3 8 -19 8 -19 19 2 7 12 12 42 12 67 0 35 4 46 16
46 10 0 13 6 9 19 -3 10 1 24 10 31 8 7 15 27 16 44 0 17 3 25 6 18 5 -14 33
29 33 51 0 6 8 19 17 29 23 25 25 154 3 171 -8 7 -16 19 -18 27 -2 8 -12 33
-23 56 -10 22 -19 46 -19 54 0 8 -9 33 -21 56 -27 56 -23 108 9 112 17 3 25
-4 35 -25 8 -19 18 -27 30 -25 27 5 20 25 -23 71 -22 23 -40 51 -40 62 0 12
-8 23 -20 26 -10 3 -22 14 -25 24 -4 10 -12 19 -19 19 -16 0 -67 70 -59 82 3
5 12 -1 21 -14 24 -34 64 -63 89 -64 12 -1 29 -7 38 -14 10 -9 33 -11 70 -7
40 4 57 2 66 -9 6 -8 24 -14 40 -14 18 0 29 -5 29 -14 0 -15 27 -29 39 -21 5
2 22 0 40 -5 19 -5 29 -5 26 1 -4 5 -15 9 -26 9 -10 0 -19 5 -19 10 0 17 35
11 53 -10 22 -26 21 -30 -2 -25 -24 4 -48 -20 -31 -30 6 -4 22 -4 36 -1 22 6
24 4 18 -18 -3 -14 -1 -27 7 -31 8 -5 10 -4 5 3 -4 7 0 12 11 13 10 0 30 2 44
4 21 3 32 -5 55 -35 16 -22 38 -40 49 -42 11 -2 24 -13 30 -25 13 -31 39 -31
32 0 -5 19 -1 17 24 -12 20 -21 29 -40 26 -53 -4 -15 -3 -17 8 -8 11 9 17 5
30 -19 19 -38 29 -41 13 -3 -16 37 -69 112 -80 112 -4 0 -8 5 -8 10 0 17 -144
200 -199 255 -83 81 -63 79 26 -2 47 -44 37 -14 -16 47 -17 19 -29 36 -27 38
2 1 20 -5 40 -15 22 -11 34 -23 31 -32 -5 -11 -3 -12 10 -1 13 11 19 10 38 -7
12 -11 28 -18 35 -16 7 3 22 -3 34 -13 11 -11 39 -23 62 -29 25 -6 41 -16 41
-25 0 -8 13 -17 30 -21 53 -12 85 -28 85 -44 0 -8 5 -15 11 -15 5 0 7 6 3 13
-3 6 14 -10 39 -38 25 -27 48 -47 51 -44 3 3 -5 16 -18 30 -28 30 -79 109 -70
109 3 0 22 -13 42 -30 88 -71 201 -158 249 -192 l52 -37 53 57 c29 32 79 91
110 132 46 61 57 83 58 115 2 56 -15 160 -29 180 -4 6 -13 29 -20 52 -6 24
-30 63 -51 88 l-40 46 -10 -27 c-6 -15 -17 -78 -24 -141 -7 -62 -16 -116 -19
-120 -4 -3 -7 0 -7 8 0 8 -28 31 -62 51 -35 21 -85 56 -111 80 -27 23 -68 54
-92 68 -57 33 -228 195 -195 185 14 -4 50 -8 81 -9 57 -2 58 -3 133 -74 42
-40 82 -72 89 -72 19 0 47 33 47 54 0 9 7 19 15 22 24 9 18 31 -20 73 -28 31
-32 40 -20 45 8 3 27 1 42 -5 23 -8 24 -8 13 6 -25 30 7 13 84 -45 44 -33 85
-60 91 -60 15 0 49 87 47 117 -1 13 4 23 11 23 6 0 1 6 -13 13 -14 7 -25 17
-25 22 0 6 -4 16 -8 23 -7 10 -2 11 20 6 68 -16 86 -45 98 -164 5 -53 13 -73
43 -114 20 -28 46 -71 58 -96 l22 -45 55 115 c124 259 194 503 221 766 l5 52
-25 -12 c-15 -7 -22 -17 -19 -26 3 -10 1 -10 -9 3 -11 14 -15 15 -25 3 -6 -7
-9 -21 -5 -29 4 -12 -4 -19 -35 -27 -23 -6 -41 -17 -41 -24 0 -7 -11 -26 -25
-42 -14 -16 -30 -35 -36 -41 -5 -7 -18 -13 -28 -13 -11 0 -21 -9 -24 -21 -4
-16 -11 -20 -26 -16 -16 4 -21 0 -21 -14 0 -14 -7 -19 -26 -19 -16 0 -23 -4
-18 -12 4 -6 3 -8 -4 -4 -6 3 -27 -5 -47 -18 -20 -14 -53 -30 -73 -37 -20 -6
-48 -18 -62 -25 -34 -19 -357 -124 -380 -124 -10 0 -22 -5 -25 -11 -4 -6 -13
-8 -21 -5 -8 3 -14 2 -14 -3 0 -13 -54 -21 -175 -27 -60 -3 -117 -10 -127 -15
-9 -5 -23 -9 -32 -9 -8 0 -27 -5 -43 -12 -15 -6 -37 -13 -48 -14 -47 -8 -66
-15 -61 -22 7 -12 -98 -14 -127 -3 -15 6 -27 7 -27 2 0 -4 -26 -4 -57 1 -40 7
-78 6 -124 -3 -40 -7 -93 -9 -130 -5 -130 13 -208 52 -89 44 40 -3 57 -1 50 6
-13 13 -139 9 -157 -5 -10 -9 -19 -9 -36 -1 -12 6 -40 13 -61 14 -41 3 -60 23
-29 31 16 4 -30 11 -64 10 -7 -1 -13 3 -13 8 0 5 -8 9 -17 9 -10 0 -31 7 -46
15 -21 10 -27 11 -24 2 2 -6 13 -13 25 -15 11 -2 26 -10 32 -18 11 -12 5 -13
-36 -8 -44 6 -99 34 -66 34 7 0 12 4 12 9 0 5 -24 14 -52 19 -73 14 -142 34
-148 42 -3 4 -26 10 -52 14 -26 4 -50 11 -53 16 -3 5 -24 14 -46 20 -60 16
-289 30 -319 19 -8 -3 -12 -4 -7 -2 13 8 7 33 -9 33 -8 0 -12 -4 -9 -10 9 -15
-47 -12 -68 4 -17 13 -17 14 0 18 10 2 95 0 188 -4 238 -11 521 6 860 52 207
27 549 113 711 178 74 30 211 107 263 149 154 123 209 175 226 213 10 22 22
40 27 40 4 0 8 4 8 9 0 6 13 29 28 53 30 46 82 158 82 177 0 7 5 9 12 5 7 -5
9 -2 6 8 -4 8 0 41 8 74 16 68 27 150 26 180 -5 78 -74 321 -149 523 -25 68
-45 135 -45 148 0 13 -3 21 -6 18 -6 -6 -42 82 -42 102 0 7 7 10 14 7 11 -4
14 1 13 22 -2 29 -35 43 -49 21 -5 -8 -8 -8 -8 -1 0 6 9 21 19 33 14 16 21 18
24 9 3 -7 6 -3 6 9 1 12 7 26 15 30 17 10 24 43 13 61 -5 8 -2 12 8 12 9 0 14
-4 11 -9 -4 -5 11 -27 31 -49 21 -22 46 -51 56 -63 16 -21 17 -22 17 -4 0 15
2 17 9 6 5 -7 14 -10 20 -7 6 4 14 0 17 -8 4 -12 16 -15 40 -12 28 3 34 0 34
-16 0 -11 -4 -16 -10 -13 -6 4 -10 -15 -10 -49 0 -53 2 -56 28 -61 15 -4 35
-10 44 -15 14 -8 16 -5 13 11 -3 17 -1 18 9 10 15 -13 10 -54 -5 -45 -5 3 -9
-11 -9 -31 0 -22 4 -34 10 -30 5 3 10 12 10 19 0 29 36 47 79 40 22 -4 41 -10
41 -15 0 -5 5 -9 10 -9 6 0 10 14 10 32 0 17 3 29 6 26 3 -4 3 -31 -1 -62 -6
-46 -11 -56 -26 -56 -11 0 -19 5 -19 10 0 6 5 10 10 10 6 0 10 9 10 20 0 11
-2 20 -5 20 -14 0 -72 -68 -84 -98 -9 -20 -19 -31 -27 -28 -7 3 -17 0 -21 -6
-11 -18 -6 -147 6 -162 6 -7 8 -15 5 -19 -8 -7 15 -50 32 -60 8 -4 14 -24 14
-43 0 -21 4 -33 10 -29 6 3 10 1 10 -4 0 -6 -5 -11 -11 -11 -6 0 -8 -7 -5 -16
4 -10 2 -13 -6 -8 -8 5 -9 2 -5 -10 4 -10 7 -21 7 -26 0 -15 40 -22 54 -10 8
6 18 10 22 9 23 -4 34 3 34 21 0 11 -5 20 -10 20 -6 0 -2 10 9 22 20 21 21 21
41 3 18 -16 20 -17 14 -2 -7 19 3 22 26 7 10 -6 11 -10 3 -10 -22 0 -14 -16
12 -28 32 -15 38 -15 30 -2 -3 6 1 10 9 10 9 0 16 -8 16 -17 1 -16 2 -16 15 1
8 11 15 28 15 38 0 39 25 98 41 98 13 0 17 10 17 41 1 23 5 46 10 51 11 11
-43 127 -63 134 -8 4 -15 17 -15 29 0 34 -10 55 -26 55 -8 0 -14 9 -14 20 0
11 -4 20 -9 20 -5 0 -13 9 -16 20 -10 32 -25 23 -18 -10 4 -21 2 -30 -7 -30
-9 0 -11 12 -7 40 5 36 1 47 -41 101 -114 153 -283 322 -437 439 -38 29 -72
56 -75 60 -6 8 -118 80 -125 80 -3 0 -78 36 -168 80 -335 164 -621 236 -967
245 -91 2 -207 0 -259 -5z m1216 -486 c-3 -3 -12 -4 -19 -1 -8 3 -5 6 6 6 11
1 17 -2 13 -5z m-4 -31 c-7 -2 -19 -2 -25 0 -7 3 -2 5 12 5 14 0 19 -2 13 -5z
m27 -17 c0 -2 -7 -7 -16 -10 -8 -3 -12 -2 -9 4 6 10 25 14 25 6z m15 -26 c-3
-5 -2 -10 3 -10 6 0 12 -6 15 -13 3 -8 -1 -14 -9 -14 -8 0 -14 4 -14 8 0 4 -3
14 -6 23 -3 9 -1 16 6 16 6 0 8 -4 5 -10z m260 -70 c3 -5 1 -10 -4 -10 -6 0
-11 5 -11 10 0 6 2 10 4 10 3 0 8 -4 11 -10z m-15 -30 c0 -5 -7 -10 -15 -10
-8 0 -15 5 -15 10 0 6 7 10 15 10 8 0 15 -4 15 -10z m-146 -56 c3 -8 2 -12 -4
-9 -6 3 -10 10 -10 16 0 14 7 11 14 -7z m119 -129 c-3 -9 -8 -14 -10 -11 -3 3
-2 9 2 15 9 16 15 13 8 -4z m329 -34 c-5 -3 -12 -13 -15 -21 -3 -9 -6 -5 -6
11 -1 31 22 59 27 33 2 -9 0 -19 -6 -23z m-2348 -323 c23 -53 21 -58 -16 -47
-18 5 -48 9 -65 9 -26 0 -33 4 -33 20 0 21 36 193 46 220 3 8 16 -25 29 -75
13 -49 31 -107 39 -127z m2055 113 c-2 -27 -7 -37 -16 -34 -15 6 -17 19 -4 27
5 3 7 15 4 26 -3 11 0 20 6 20 7 0 11 -15 10 -39z m421 4 c0 -9 -9 -25 -20
-37 -17 -19 -20 -19 -20 -5 0 9 5 17 10 17 6 0 10 9 10 20 0 11 5 20 10 20 6
0 10 -7 10 -15z m-475 -35 c3 -5 2 -10 -4 -10 -5 0 -13 5 -16 10 -3 6 -2 10 4
10 5 0 13 -4 16 -10z m-1195 -91 c0 -3 -7 -6 -15 -6 -8 0 -12 4 -9 9 3 5 -2
21 -11 36 -15 25 -14 25 9 -3 14 -16 26 -33 26 -36z m1750 26 c0 -26 -3 -33
-15 -29 -10 4 -12 11 -6 22 4 10 6 23 4 30 -3 6 0 12 6 12 6 0 11 -16 11 -35z
m165 -97 c-4 -46 -7 -97 -7 -115 1 -17 -4 -33 -11 -36 -15 -6 -14 95 2 136 6
16 11 44 11 63 0 19 3 34 6 34 3 0 3 -37 -1 -82z m-675 32 c0 -5 -5 -10 -11
-10 -5 0 -7 5 -4 10 3 6 8 10 11 10 2 0 4 -4 4 -10z m716 -76 c12 4 12 2 4
-15 -15 -27 -30 -14 -29 24 1 25 3 27 6 9 3 -16 10 -22 19 -18z m-2739 9 c15
-3 40 -33 70 -80 46 -75 108 -132 183 -167 33 -17 33 -15 -15 29 -44 40 -46
44 -18 30 18 -8 51 -15 75 -15 27 0 56 -8 78 -22 19 -12 61 -34 92 -50 48 -23
62 -26 85 -17 15 5 39 7 53 4 20 -4 22 -3 10 6 -12 8 -10 9 10 4 14 -3 30 -7
37 -7 6 -1 9 -7 6 -14 -6 -17 10 -25 27 -12 12 8 12 9 -3 4 -11 -3 -16 -2 -12
4 9 15 35 12 35 -4 0 -10 8 -13 21 -11 20 4 20 3 5 -14 -23 -25 -20 -34 9 -27
l25 6 -20 -37 c-11 -21 -20 -42 -20 -47 0 -5 -8 -18 -17 -29 -35 -40 9 -5 53
43 60 64 110 96 163 104 36 5 42 4 38 -8 -3 -8 -9 -41 -12 -73 -6 -46 -3 -70
15 -118 12 -33 22 -69 23 -80 1 -26 12 -32 69 -40 26 -4 45 -11 42 -16 -3 -5
13 -9 35 -9 30 0 41 -4 41 -15 0 -8 5 -15 10 -15 6 0 10 4 10 9 0 15 36 19 54
5 13 -9 25 -10 47 -2 16 5 36 7 44 4 8 -3 15 -1 15 5 0 6 9 8 20 4 11 -3 20
-3 20 2 0 4 12 13 26 20 23 11 24 10 12 -4 -12 -15 -9 -16 27 -10 32 5 37 4
24 -6 -10 -8 -13 -20 -8 -37 11 -40 10 -142 -1 -135 -9 6 -15 -27 -12 -67 1
-10 -4 -18 -11 -18 -6 0 -29 -23 -50 -52 -21 -28 -51 -62 -68 -74 -26 -19 -28
-23 -11 -21 11 0 18 5 16 9 -3 4 3 5 12 1 13 -5 15 -3 9 7 -5 9 -4 11 4 6 6
-4 9 -11 6 -16 -3 -5 3 -13 12 -19 16 -9 16 -10 -4 -8 -12 0 -19 5 -17 9 3 4
-5 6 -18 4 -13 -3 -29 -5 -36 -5 -7 -1 -10 -5 -7 -11 3 -5 -4 -10 -17 -11 -23
-1 -23 -1 2 -8 24 -7 23 -8 -10 -13 -19 -3 -60 -13 -90 -22 -30 -9 -120 -23
-199 -33 -127 -15 -163 -15 -305 -4 -89 8 -289 14 -446 16 -303 3 -291 4 -412
-49 l-37 -16 -31 81 c-41 107 -70 246 -70 339 0 77 17 327 26 368 5 27 24 20
24 -9 0 -21 44 -103 67 -127 8 -8 21 -11 30 -8 14 6 14 9 -5 27 -12 11 -22 23
-23 27 0 4 -4 43 -8 87 -7 62 -6 86 5 107 8 16 18 27 22 27 20 -3 31 3 34 19
2 9 7 -16 11 -57 7 -74 37 -161 63 -182 20 -17 17 -39 -6 -39 -11 0 -20 -5
-20 -11 0 -6 8 -8 19 -4 10 3 42 8 71 11 102 10 148 59 153 165 3 46 -1 73
-13 96 -10 18 -19 31 -21 29 -2 -2 -13 8 -23 22 l-20 27 24 -20 23 -20 -11 20
c-17 32 -73 81 -124 107 -25 14 -57 38 -71 54 -22 27 -47 83 -47 107 0 9 73 4
127 -10z m851 -6 c-1 -3 8 -17 21 -31 14 -14 20 -26 14 -26 -6 0 -16 7 -23 15
-14 16 -30 20 -30 7 0 -5 11 -15 25 -22 14 -7 23 -15 20 -18 -2 -3 -17 3 -31
13 -26 17 -28 17 -41 -1 -7 -10 -13 -21 -13 -25 0 -4 -10 -5 -22 -2 -21 4 -22
3 -6 -10 10 -8 15 -17 12 -20 -14 -13 -37 28 -38 65 -1 38 1 41 26 42 14 1 24
-2 21 -7 -3 -5 -14 -6 -25 -4 -12 4 -18 1 -15 -6 3 -7 9 -11 15 -10 6 2 9 -4
6 -12 -4 -9 0 -15 10 -15 9 0 16 7 16 15 0 8 4 15 8 15 14 0 52 36 47 44 -3 3
-2 4 1 2 3 -2 4 -7 2 -9z m1192 -17 c0 -11 -2 -20 -4 -20 -2 0 -6 9 -9 20 -3
11 -1 20 4 20 5 0 9 -9 9 -20z m48 -17 c4 -39 -20 -61 -39 -36 -13 16 -12 17
3 4 16 -12 17 -10 14 28 -2 28 0 41 8 38 6 -2 12 -17 14 -34z m-1098 -44 c0
-13 -4 -12 -47 13 -30 18 -35 19 -24 5 12 -15 12 -17 -3 -11 -9 3 -16 11 -16
17 0 6 -8 19 -17 29 -13 14 0 10 45 -12 34 -18 62 -36 62 -41z m-1583 -139
c11 -42 32 -95 47 -118 35 -55 33 -66 -3 -16 -15 21 -37 68 -49 104 l-20 65
-2 -65 c-1 -49 -4 -59 -10 -40 -10 32 -12 173 -2 225 l7 40 6 -60 c3 -33 15
-94 26 -135z m1593 180 c8 -5 11 -10 5 -10 -5 0 -17 5 -25 10 -8 5 -10 10 -5
10 6 0 17 -5 25 -10z m1120 0 c0 -5 -2 -10 -4 -10 -3 0 -8 5 -11 10 -3 6 -1
10 4 10 6 0 11 -4 11 -10z m-1030 -41 c0 -4 -10 -5 -22 -2 -14 3 -18 1 -12 -4
9 -6 7 -12 -4 -23 -14 -13 -15 -12 -10 2 4 8 0 25 -8 36 -13 19 -13 20 21 9
19 -6 35 -14 35 -18z m-279 -26 c-12 -20 -14 -14 -5 12 4 9 9 14 11 11 3 -2 0
-13 -6 -23z m219 17 c0 -5 -7 -10 -16 -10 -8 0 -12 5 -9 10 3 6 10 10 16 10 5
0 9 -4 9 -10z m261 -31 c19 -10 24 -35 11 -55 -5 -8 -39 -4 -117 12 -60 12
-112 23 -115 24 -3 1 -14 2 -25 1 l-20 -1 20 9 c11 5 23 7 28 4 4 -2 7 3 7 11
0 9 7 16 16 16 8 0 13 4 10 8 -6 11 161 -16 185 -29z m796 -6 c-3 -10 -5 -4
-5 12 0 17 2 24 5 18 2 -7 2 -21 0 -30z m383 -29 c0 -8 -6 -14 -12 -14 -7 0
-13 11 -13 24 0 18 3 22 13 14 6 -6 12 -17 12 -24z m-336 10 c10 -25 7 -50 -9
-80 -10 -20 -15 -23 -15 -11 0 9 5 26 12 36 9 15 9 25 0 45 -6 14 -8 26 -3 26
5 0 12 -7 15 -16z m-2112 -47 c20 -9 40 -22 43 -27 4 -6 -20 3 -54 20 -34 16
-61 32 -61 35 0 4 5 3 72 -28z m-493 -97 c34 -23 38 -30 26 -40 -20 -17 -64
16 -104 78 -41 65 -40 86 3 32 18 -23 52 -55 75 -70z m1682 94 c40 -9 67 -20
63 -26 -4 -6 -10 -6 -17 1 -16 16 -31 13 -18 -3 10 -12 8 -13 -8 -9 -12 3 -18
9 -15 14 6 10 -22 18 -99 29 -47 7 -48 8 -14 9 21 0 69 -6 108 -15z m881 -26
c5 -28 4 -29 -9 -13 -15 21 -17 45 -4 45 5 0 11 -14 13 -32z m378 22 c0 -5 -4
-10 -10 -10 -5 0 -10 5 -10 10 0 6 5 10 10 10 6 0 10 -4 10 -10z m-1320 -10
c20 -6 21 -8 5 -8 -11 0 -31 4 -45 8 -20 6 -21 8 -5 8 11 0 31 -4 45 -8z m920
-52 c0 -19 -16 -5 -17 14 -2 18 0 20 7 8 5 -8 10 -18 10 -22z m75 -9 c-25 -71
-18 -129 16 -129 19 0 26 15 11 22 -13 5 -22 62 -12 78 13 22 25 3 25 -41 0
-32 3 -39 20 -39 18 -1 19 -1 3 -11 -10 -5 -18 -19 -18 -29 0 -11 -6 -20 -14
-20 -8 0 -26 -21 -41 -46 -26 -45 -48 -57 -25 -14 18 33 21 110 4 103 -8 -3
-11 -9 -8 -15 9 -14 -17 -99 -28 -92 -5 3 -5 10 0 17 10 13 23 57 16 57 -2 0
-12 -17 -23 -37 -11 -21 -20 -31 -21 -22 0 8 13 36 29 61 21 34 28 55 26 81
-4 43 4 79 16 71 5 -3 9 3 9 14 0 20 8 32 21 32 5 0 2 -19 -6 -41z m-1621 16
c26 -4 43 -11 40 -17 -9 -14 -69 -3 -96 18 -13 9 -16 14 -7 11 9 -3 37 -9 63
-12z m-476 -88 c4 -21 -27 -35 -38 -17 -12 19 0 42 19 38 9 -2 17 -11 19 -21z
m-438 -26 c45 -27 32 -27 -21 -1 -22 12 -37 25 -33 31 4 7 9 8 13 1 3 -5 22
-19 41 -31z m538 14 c-3 -3 -9 2 -12 12 -6 14 -5 15 5 6 7 -7 10 -15 7 -18z
m1942 -8 c0 -5 -4 -5 -10 -2 -5 3 -10 14 -10 23 0 15 2 15 10 2 5 -8 10 -19
10 -23z m-2380 3 c0 -5 -8 -10 -17 -10 -15 0 -16 2 -3 10 19 12 20 12 20 0z
m1446 -49 c-10 -16 -23 -14 -30 5 -9 25 4 38 21 21 9 -8 12 -20 9 -26z m-1441
19 c-3 -5 -18 -9 -33 -9 l-27 1 30 8 c17 4 31 8 33 9 2 0 0 -3 -3 -9z m2360
-10 c-3 -5 -11 -10 -16 -10 -6 0 -7 5 -4 10 3 6 11 10 16 10 6 0 7 -4 4 -10z
m145 -40 c0 -5 -2 -10 -4 -10 -3 0 -8 5 -11 10 -3 6 -1 10 4 10 6 0 11 -4 11
-10z m-15 -20 c3 -5 1 -10 -4 -10 -6 0 -11 5 -11 10 0 6 2 10 4 10 3 0 8 -4
11 -10z m-2150 -51 c13 -12 38 -11 30 1 -3 6 -1 10 4 10 16 0 13 -16 -5 -31
-26 -21 -42 -19 -38 5 4 20 4 20 -7 -1 -15 -29 -33 -30 -24 -2 5 13 2 25 -6
31 -10 6 -6 7 11 3 14 -4 29 -11 35 -16z m1145 11 c0 -5 -4 -10 -10 -10 -5 0
-10 5 -10 10 0 6 5 10 10 10 6 0 10 -4 10 -10z m997 -22 c-3 -7 -5 -2 -5 12 0
14 2 19 5 13 2 -7 2 -19 0 -25z m-2206 -2 c20 18 25 9 9 -16 -11 -17 -41 -4
-47 21 -3 8 1 6 7 -4 11 -18 13 -18 31 -1z m2078 -7 c1 8 3 12 6 9 3 -3 1 -16
-4 -30 -10 -26 2 -58 21 -58 26 0 47 32 41 62 -5 24 -3 30 8 26 33 -11 12 -87
-40 -147 -17 -20 -23 -22 -36 -11 -18 15 -20 36 -2 43 9 4 9 8 0 14 -6 4 -11
33 -11 63 0 39 2 49 8 35 5 -12 9 -14 9 -6z m-1035 -20 c-2 -4 4 -13 13 -20
15 -12 16 -12 9 6 -6 16 -5 18 5 8 9 -9 10 -16 2 -24 -8 -8 -17 -4 -32 12 -22
24 -25 32 -14 42 8 8 24 -14 17 -24z m1086 -13 c0 -3 -4 -8 -10 -11 -5 -3 -10
-1 -10 4 0 6 5 11 10 11 6 0 10 -2 10 -4z m-910 -66 c0 -5 -12 -10 -26 -10
-14 0 -23 4 -19 10 3 6 15 10 26 10 10 0 19 -4 19 -10z m-1719 -137 c20 -6 27
-23 9 -23 -6 0 -16 -12 -23 -27 -6 -16 -18 -32 -25 -36 -11 -7 -10 -13 5 -30
10 -11 13 -17 7 -14 -7 4 -18 -1 -25 -10 -12 -15 -12 -16 5 -10 17 7 18 6 4
-15 -9 -13 -26 -25 -38 -26 -18 -3 -20 -6 -9 -13 12 -7 12 -9 -1 -9 -8 0 -26
-9 -40 -20 -20 -15 -21 -20 -8 -20 9 0 20 -4 23 -10 7 -12 -15 -13 -33 -1 -11
6 -9 20 11 67 13 32 37 105 53 161 l28 102 18 -30 c11 -17 28 -33 39 -36z
m2579 57 c0 -5 -5 -10 -11 -10 -5 0 -7 5 -4 10 3 6 8 10 11 10 2 0 4 -4 4 -10z
m-275 -320 c-3 -5 -12 -10 -18 -10 -7 0 -6 4 3 10 19 12 23 12 15 0z m-65 -30
c-8 -5 -19 -10 -25 -10 -5 0 -3 5 5 10 8 5 20 10 25 10 6 0 3 -5 -5 -10z
m-383 -46 c-3 -3 -12 -4 -19 -1 -8 3 -5 6 6 6 11 1 17 -2 13 -5z m223 -29 c-7
-9 -15 -13 -19 -10 -3 3 1 10 9 15 21 14 24 12 10 -5z m79 -25 c-6 -5 -19 -6
-27 -2 -13 4 -12 7 4 12 23 9 41 1 23 -10z m-229 -10 c-8 -5 -22 -9 -30 -9
-10 0 -8 3 5 9 27 12 43 12 25 0z m106 1 c-7 -10 -66 -33 -66 -25 0 4 57 32
68 34 2 0 1 -4 -2 -9z m54 2 c-1 -24 -60 -57 -60 -34 0 6 6 11 14 11 7 0 19 7
26 15 14 17 20 19 20 8z m-1377 -20 c-7 -2 -19 -2 -25 0 -7 3 -2 5 12 5 14 0
19 -2 13 -5z m-21 -32 c4 -3 11 -24 16 -47 9 -40 9 -41 -17 -36 -31 6 -45 16
-72 54 l-20 28 23 9 c22 9 56 5 70 -8z m122 -1 c5 -5 10 -26 10 -45 0 -19 4
-35 8 -35 23 0 3 -18 -31 -28 -54 -17 -63 -15 -56 8 4 11 2 20 -4 20 -17 0
-32 71 -19 88 13 15 74 10 92 -8z m100 -1 c19 -15 24 -16 20 -5 -5 12 1 16 24
16 17 0 34 -4 37 -10 3 -5 16 -10 28 -10 21 -1 21 -2 -7 -26 -26 -23 -30 -24
-51 -10 -21 14 -23 14 -18 -4 3 -11 9 -20 14 -20 5 0 9 -4 9 -9 0 -12 -71 -20
-91 -10 -13 7 -49 75 -49 94 0 2 10 6 23 8 12 2 25 5 28 6 4 0 18 -8 33 -20z
m-439 -39 c3 -6 -1 -7 -9 -4 -18 7 -21 14 -7 14 6 0 13 -4 16 -10z m655 -9 c0
-15 -69 -43 -89 -36 -31 9 -26 21 16 38 34 13 73 13 73 -2z m736 10 c-3 -5
-15 -7 -26 -4 -28 7 -25 13 6 13 14 0 23 -4 20 -9z m-1632 -27 c-27 -15 -70
-33 -96 -41 -27 -7 -48 -15 -48 -17 0 -2 19 -2 43 2 37 5 41 4 29 -11 -17 -20
-101 -16 -156 7 -22 9 -46 14 -53 12 -7 -3 -15 -1 -18 4 -3 5 -22 17 -41 26
-19 9 -33 19 -31 21 3 2 35 -1 72 -8 73 -12 160 -7 260 15 88 20 93 19 39 -10z
m346 -35 c0 -5 -8 -9 -17 -8 -11 0 -13 3 -5 6 6 2 9 10 6 15 -4 7 -2 8 4 4 7
-4 12 -11 12 -17z m1125 -8 c-14 -12 -82 -24 -70 -12 10 9 38 18 65 20 8 1 10
-2 5 -8z m-120 -21 c18 -8 17 -9 -7 -9 -16 -1 -28 4 -28 9 0 12 8 12 35 0z
m-1682 -60 c74 -19 93 -30 147 -85 49 -49 52 -56 46 -88 -4 -20 -12 -37 -19
-40 -7 -2 40 -29 104 -59 63 -30 140 -71 170 -90 53 -35 195 -165 188 -173
-12 -12 -182 41 -266 83 -101 50 -137 65 -258 102 -120 37 -152 82 -179 257
-9 57 -21 114 -26 129 l-10 26 30 -26 c17 -14 50 -30 73 -36z m447 -144 c0 -3
-4 -8 -10 -11 -5 -3 -10 -1 -10 4 0 6 5 11 10 11 6 0 10 -2 10 -4z m95 -66 c3
-6 15 -10 27 -10 11 0 32 -8 46 -19 15 -10 37 -22 50 -25 12 -4 22 -11 22 -16
0 -5 10 -12 23 -15 33 -11 290 -165 284 -171 -1 -2 -20 1 -42 6 -54 13 -187
12 -221 0 -22 -9 -29 -7 -44 10 -9 11 -20 17 -24 13 -3 -3 -6 -1 -6 5 0 6 -7
9 -17 5 -11 -4 -14 -3 -9 5 4 7 1 12 -7 12 -16 0 -58 46 -49 55 4 3 -1 3 -11
-1 -12 -4 -17 -1 -17 11 0 9 -13 22 -30 28 -20 7 -33 21 -37 37 -3 14 -10 31
-16 38 -5 6 -6 12 -2 12 4 0 2 7 -5 15 -11 13 -8 15 14 15 14 0 26 5 26 10 0
12 35 -4 45 -20z m1368 -157 c-7 -2 -19 -2 -25 0 -7 3 -2 5 12 5 14 0 19 -2
13 -5z m213 -496 c4 -4 -10 -7 -32 -6 -30 0 -34 2 -19 8 22 9 41 8 51 -2z
m114 -71 c0 -3 -4 -8 -10 -11 -5 -3 -10 -1 -10 4 0 6 5 11 10 11 6 0 10 -2 10
-4z m4 -52 c24 -9 19 -21 -9 -21 -25 0 -31 7 -18 20 8 8 8 8 27 1z m-1284
-425 c0 -16 -4 -29 -10 -29 -5 0 -10 16 -10 36 0 21 4 33 10 29 6 -3 10 -19
10 -36z m-440 1 c0 -5 -7 -10 -15 -10 -8 0 -15 5 -15 10 0 6 7 10 15 10 8 0
15 -4 15 -10z m-33 -42 c-3 -8 -6 -5 -6 6 -1 11 2 17 5 13 3 -3 4 -12 1 -19z
m503 5 c0 -5 -5 -15 -10 -23 -7 -12 -9 -10 -7 8 1 19 17 33 17 15z m-10 -58
c0 -8 -4 -15 -10 -15 -5 0 -10 7 -10 15 0 8 5 15 10 15 6 0 10 -7 10 -15z
m-347 -95 c-3 -12 -8 -19 -11 -16 -5 6 5 36 12 36 2 0 2 -9 -1 -20z m364 -37
c-3 -10 -5 -2 -5 17 0 19 2 27 5 18 2 -10 2 -26 0 -35z m154 -56 c-10 -9 -11
-8 -5 6 3 10 9 15 12 12 3 -3 0 -11 -7 -18z m9 -33 c0 -8 -5 -12 -10 -9 -6 4
-8 11 -5 16 9 14 15 11 15 -7z m-68 -74 c3 -17 1 -30 -4 -30 -4 0 -8 14 -8 30
0 17 2 30 4 30 2 0 6 -13 8 -30z"/>
<path d="M1430 2696 c0 -9 30 -14 35 -6 4 6 -3 10 -14 10 -12 0 -21 -2 -21 -4z"/>
<path d="M2535 2640 c3 -5 11 -10 16 -10 6 0 7 5 4 10 -3 6 -11 10 -16 10 -6
0 -7 -4 -4 -10z"/>
<path d="M3042 2510 c0 -14 2 -19 5 -12 2 6 2 18 0 25 -3 6 -5 1 -5 -13z"/>
<path d="M1740 2310 c0 -6 7 -10 15 -10 8 0 15 2 15 4 0 2 -7 6 -15 10 -8 3
-15 1 -15 -4z"/>
<path d="M2691 3159 c-13 -5 -22 -11 -20 -14 8 -7 49 7 49 16 0 5 -1 9 -2 8
-2 0 -14 -5 -27 -10z"/>
<path d="M975 2330 c3 -5 11 -10 16 -10 6 0 7 5 4 10 -3 6 -11 10 -16 10 -6 0
-7 -4 -4 -10z"/>
<path d="M3690 3750 c0 -11 5 -20 10 -20 6 0 10 9 10 20 0 11 -4 20 -10 20 -5
0 -10 -9 -10 -20z"/>
<path d="M3620 3746 c0 -9 5 -16 10 -16 6 0 10 4 10 9 0 6 -4 13 -10 16 -5 3
-10 -1 -10 -9z"/>
<path d="M3640 3696 c0 -8 4 -17 9 -20 5 -4 7 3 4 14 -6 23 -13 26 -13 6z"/>
<path d="M4340 3200 c0 -5 5 -10 10 -10 6 0 10 5 10 10 0 6 -4 10 -10 10 -5 0
-10 -4 -10 -10z"/>
<path d="M4300 3116 c0 -9 5 -16 10 -16 6 0 10 4 10 9 0 6 -4 13 -10 16 -5 3
-10 -1 -10 -9z"/>
<path d="M3985 3030 c-3 -5 -1 -10 4 -10 6 0 11 5 11 10 0 6 -2 10 -4 10 -3 0
-8 -4 -11 -10z"/>
<path d="M4370 2822 c0 -29 -26 -62 -48 -62 -14 0 -15 -8 -13 -67 1 -25 -3
-43 -9 -43 -10 0 -31 -41 -25 -48 2 -2 23 7 48 20 40 20 45 27 43 53 -1 17 -7
40 -14 53 -7 12 -9 23 -5 23 4 1 15 2 23 3 18 1 28 96 10 96 -5 0 -10 -13 -10
-28z"/>
<path d="M4215 2779 c-11 -16 -1 -19 13 -3 7 8 8 14 3 14 -5 0 -13 -5 -16 -11z"/>
<path d="M4383 2693 c-15 -5 -17 -23 -4 -23 5 0 11 7 15 15 3 8 4 15 3 14 -1
0 -8 -3 -14 -6z"/>
<path d="M4466 2055 c4 -8 10 -12 15 -9 14 8 10 24 -6 24 -9 0 -12 -6 -9 -15z"/>
<path d="M1658 1763 c6 -2 18 -2 25 0 6 3 1 5 -13 5 -14 0 -19 -2 -12 -5z"/>
<path d="M2380 1580 c8 -5 20 -10 25 -10 6 0 3 5 -5 10 -8 5 -19 10 -25 10 -5
0 -3 -5 5 -10z"/>
<path d="M3025 1510 c-3 -5 -1 -10 4 -10 6 0 11 5 11 10 0 6 -2 10 -4 10 -3 0
-8 -4 -11 -10z"/>
<path d="M3280 966 c0 -4 8 -18 18 -31 9 -12 24 -33 32 -45 43 -64 73 -100 77
-96 3 3 -2 12 -11 21 -9 9 -16 21 -16 27 0 6 -19 33 -42 62 -58 71 -58 71 -58
62z"/>
<path d="M2840 950 c0 -6 7 -10 15 -10 8 0 15 2 15 4 0 2 -7 6 -15 10 -8 3
-15 1 -15 -4z"/>
<path d="M3702 786 c7 -8 15 -12 17 -11 5 6 -10 25 -20 25 -5 0 -4 -6 3 -14z"/>
<path d="M1806 533 c-9 -9 -7 -33 3 -33 12 0 22 28 12 34 -5 3 -11 3 -15 -1z"/>
<path d="M3530 480 c0 -19 59 -91 60 -72 0 6 -4 12 -10 12 -5 0 -10 6 -10 13
-1 19 -40 65 -40 47z"/>
<path d="M1846 389 c-9 -45 -8 -49 9 -49 10 0 15 10 15 34 0 45 -16 55 -24 15z"/>
<path d="M1810 129 c0 -37 4 -58 10 -54 6 3 10 -1 10 -9 0 -9 8 -16 19 -16 11
0 26 -3 35 -6 26 -10 22 62 -4 76 -24 13 -41 5 -33 -15 3 -8 0 -15 -6 -15 -6
0 -11 14 -11 30 0 17 5 30 10 30 6 0 10 9 10 20 0 13 -7 20 -20 20 -18 0 -20
-7 -20 -61z"/>
</g>
</svg>
